<?xml version="1.0" standalone="no"?>
<!DOCTYPE svg PUBLIC "-//W3C//DTD SVG 1.1//EN" "http://www.w3.org/Graphics/SVG/1.1/DTD/svg11.dtd" >
<svg>
<metadata>
Created by FontForge 20110222 at Wed Aug 26 05:41:53 2015
 By www-data
Sigma Five (c) (Neale Davidson). 1998-2015. All Rights Reserved
</metadata>
<defs>
<font id="SigmaFive" horiz-adv-x="1500" >
  <font-face 
    font-family="Sigma Five"
    font-weight="400"
    font-stretch="normal"
    units-per-em="2048"
    panose-1="2 0 5 0 0 0 0 0 0 0"
    ascent="1638"
    descent="-410"
    x-height="1120"
    cap-height="1400"
    bbox="-300 -450 2400 2200"
    underline-thickness="150"
    underline-position="-142"
    unicode-range="U+001D-F002"
  />
<missing-glyph horiz-adv-x="1650" 
d="M0 200v1100q0 200 200 200h1100q200 0 200 -200v-1100q0 -200 -200 -200h-1100q-200 0 -200 200zM1475 201v1099q0 175 -175 175h-1100q-174 0 -175 -175v-1100q1 -175 175 -175h1101q174 0 174 176z" />
    <glyph glyph-name=".notdef" horiz-adv-x="1650" 
d="M0 200v1100q0 200 200 200h1100q200 0 200 -200v-1100q0 -200 -200 -200h-1100q-200 0 -200 200zM1475 201v1099q0 175 -175 175h-1100q-174 0 -175 -175v-1100q1 -175 175 -175h1101q174 0 174 176z" />
    <glyph glyph-name=".null" horiz-adv-x="0" 
 />
    <glyph glyph-name=".null" horiz-adv-x="0" 
 />
    <glyph glyph-name="nonmarkingreturn" horiz-adv-x="508" 
 />
    <glyph glyph-name="space" unicode=" " horiz-adv-x="1000" 
 />
    <glyph glyph-name="space" unicode="&#xa0;" horiz-adv-x="1000" 
 />
    <glyph glyph-name="exclam" unicode="!" horiz-adv-x="500" 
d="M400 350v-350h-400v350h400zM0 1400h400v-950h-400v950z" />
    <glyph glyph-name="quotedbl" unicode="&#x22;" horiz-adv-x="1000" 
d="M0 1400h400v-350q0 -200 -100 -300h-100v100q0 200 -200 200v350zM500 1400h400v-350q0 -200 -100 -300h-100v100q0 200 -200 200v350z" />
    <glyph glyph-name="numbersign" unicode="#" 
d="M749 350h-149v-250h-400v250h-200v300h200v200h-200v300h200v250h400v-250h149v250h400v-250h201v-300h-201v-200h201v-300h-201v-250h-400v250zM600 650h149v200h-149v-200z" />
    <glyph glyph-name="dollar" unicode="$" 
d="M500 1300v100h400v-100q100 0 100 100q200 0 400 -200l-250 -250h-650q-21 0 -35.5 -14.5t-14.5 -35.5t14.5 -35.5t35.5 -14.5h525q155 0 265 -110t110 -265t-110 -265t-265 -110h-125v-100h-400v101h-499l-1 349h900q21 0 35.5 14.5t14.5 35.5t-14.5 35.5t-35.5 14.5
h-525q-155 0 -265 110t-110 265t110 265t265 110h125z" />
    <glyph glyph-name="percent" unicode="%" horiz-adv-x="1600" 
d="M570.5 879.5q29.5 29.5 29.5 70.5t-29.5 70.5t-70.5 29.5t-70.5 -29.5t-29.5 -70.5t29.5 -70.5t70.5 -29.5t70.5 29.5zM1070.5 379.5q29.5 29.5 29.5 70.5t-29.5 70.5t-70.5 29.5t-70.5 -29.5t-29.5 -70.5t29.5 -70.5t70.5 -29.5t70.5 29.5zM726 73l-26 -73h-450l197 502
q-173 15 -300 130q-147 132 -147 318t146.5 318t353.5 132q152 0 272 -71l28 71h400l-179 -500q194 -7 333 -132q146 -132 146 -318t-146.5 -318t-353.5 -132q-154 0 -274 73z" />
    <glyph glyph-name="ampersand" unicode="&#x26;" 
d="M1200 350h200v-350h-975q-176 0 -300.5 124.5t-124.5 300.5q0 158 101 275q-101 117 -101 275q0 176 124.5 300.5t300.5 124.5h375v-350h-300q-41 0 -70.5 -29.5t-29.5 -70.5t29.5 -70.5t70.5 -29.5h300v100h400v-100h200v-300h-200v-200zM800 550h-300
q-41 0 -70.5 -29.5t-29.5 -70.5t29.5 -70.5t70.5 -29.5h300v200z" />
    <glyph glyph-name="quotesingle" unicode="'" horiz-adv-x="500" 
d="M0 1400h400v-350q0 -200 -100 -300h-100v100q0 200 -200 200v350z" />
    <glyph glyph-name="parenleft" unicode="(" horiz-adv-x="650" 
d="M0 1075q0 176 124.5 300.5t300.5 124.5h125v-350h-50q-41 0 -70.5 -29.5t-29.5 -70.5v-700q0 -41 29.5 -70.5t70.5 -29.5h50v-350h-125q-176 0 -300.5 124.5t-124.5 300.5v750z" />
    <glyph glyph-name="parenright" unicode=")" horiz-adv-x="650" 
d="M550 325q0 -176 -124.5 -300.5t-300.5 -124.5h-125v350h50q41 0 70.5 29.5t29.5 70.5v700q0 41 -29.5 70.5t-70.5 29.5h-50v350h125q176 0 300.5 -124.5t124.5 -300.5v-750z" />
    <glyph glyph-name="asterisk" unicode="*" horiz-adv-x="1100" 
d="M300 1325v175h400v-175l166 54l124 -380l-167 -54l103 -142l-323 -235l-103 141l-103 -141l-323 235l103 142l-167 54l124 380z" />
    <glyph glyph-name="plus" unicode="+" horiz-adv-x="1300" 
d="M400 550h-400v300h400v350h400v-350h400v-300h-400v-350h-400v350z" />
    <glyph glyph-name="comma" unicode="," horiz-adv-x="500" 
d="M0 350h400v-350q0 -200 -100 -300h-100v100q0 200 -200 200v350z" />
    <glyph glyph-name="hyphen" unicode="-" horiz-adv-x="1300" 
d="M0 850h1200v-300h-1200v300z" />
    <glyph glyph-name="hyphen" unicode="&#xad;" horiz-adv-x="1300" 
d="M0 850h1200v-300h-1200v300z" />
    <glyph glyph-name="period" unicode="." horiz-adv-x="500" 
d="M0 350h400v-350h-400v350z" />
    <glyph glyph-name="slash" unicode="/" horiz-adv-x="952" 
d="M-50 0l550 1400h400l-500 -1400h-450z" />
    <glyph glyph-name="zero" unicode="0" 
d="M1195 1195q205 -205 205 -495t-205 -495t-495 -205t-495 205t-205 495t205 495t495 205t495 -205zM700 1050q-124 0 -212 -102.5t-88 -247.5t88 -247.5t212 -102.5t212 102.5t88 247.5t-88 247.5t-212 102.5z" />
    <glyph glyph-name="one" unicode="1" horiz-adv-x="600" 
d="M500 1400v-1400h-400v1050h-100v350h500z" />
    <glyph glyph-name="two" unicode="2" 
d="M500 550q-41 0 -70.5 -29.5t-29.5 -70.5v-100h1000l-1 -349l-1399 -1v425q0 176 124.5 300.5t300.5 124.5h475q41 0 70.5 29.5t29.5 70.5t-29.5 70.5t-70.5 29.5h-900v350h975q176 0 300.5 -124.5t124.5 -300.5t-124.5 -300.5t-300.5 -124.5h-475z" />
    <glyph glyph-name="three" unicode="3" 
d="M400 550v300h500q41 0 70.5 29.5t29.5 70.5t-29.5 70.5t-70.5 29.5h-900v350h975q176 0 300.5 -124.5t124.5 -300.5q0 -158 -101 -275q101 -117 101 -275q0 -176 -124.5 -300.5t-300.5 -124.5h-975v350h900q41 0 70.5 29.5t29.5 70.5t-29.5 70.5t-70.5 29.5h-500z" />
    <glyph glyph-name="four" unicode="4" 
d="M1300 400v-400h-400v400h-900v1000h400v-700h500v700h400v-700h100v-300h-100z" />
    <glyph glyph-name="five" unicode="5" 
d="M0 550v850h900q100 0 100 100q200 0 400 -200l-250 -250h-750v-200h575q176 0 300.5 -124.5t124.5 -300.5t-124.5 -300.5t-300.5 -124.5l-974 1l-1 349h900q41 0 70.5 29.5t29.5 70.5t-29.5 70.5t-70.5 29.5h-900z" />
    <glyph glyph-name="six" unicode="6" 
d="M900 550h-500v-100q0 -41 29.5 -70.5t70.5 -29.5h400q41 0 70.5 29.5t29.5 70.5t-29.5 70.5t-70.5 29.5zM0 975q0 176 124.5 300.5t300.5 124.5h275q100 0 100 100q200 0 400 -200l-250 -250h-450q-41 0 -70.5 -29.5t-29.5 -70.5v-100h575q176 0 300.5 -124.5
t124.5 -300.5t-124.5 -300.5t-300.5 -124.5h-550q-176 0 -300.5 124.5t-124.5 300.5v550z" />
    <glyph glyph-name="seven" unicode="7" 
d="M1450 1400l-650 -1400h-450l489 1053h-839v347h1450z" />
    <glyph glyph-name="eight" unicode="8" 
d="M900 350q41 0 70.5 29.5t29.5 70.5t-29.5 70.5t-70.5 29.5h-400q-41 0 -70.5 -29.5t-29.5 -70.5t29.5 -70.5t70.5 -29.5h400zM900 850q41 0 70.5 29.5t29.5 70.5t-29.5 70.5t-70.5 29.5h-400q-41 0 -70.5 -29.5t-29.5 -70.5t29.5 -70.5t70.5 -29.5h400zM975 1400
q176 0 300.5 -124.5t124.5 -300.5q0 -158 -101 -275q101 -117 101 -275q0 -176 -124.5 -300.5t-300.5 -124.5h-550q-176 0 -300.5 124.5t-124.5 300.5q0 158 101 275q-101 117 -101 275q0 176 124.5 300.5t300.5 124.5h550z" />
    <glyph glyph-name="nine" unicode="9" 
d="M500 850h500v100q0 41 -29.5 70.5t-70.5 29.5h-400q-41 0 -70.5 -29.5t-29.5 -70.5t29.5 -70.5t70.5 -29.5zM1400 425q0 -176 -124.5 -300.5t-300.5 -124.5h-775v350h700q41 0 70.5 29.5t29.5 70.5v100h-575q-176 0 -300.5 124.5t-124.5 300.5t124.5 300.5t300.5 124.5
h550q176 0 300.5 -124.5t124.5 -300.5v-550z" />
    <glyph glyph-name="colon" unicode=":" horiz-adv-x="500" 
d="M0 350h400v-350h-400v350zM0 900h400v-350h-400v350z" />
    <glyph glyph-name="semicolon" unicode=";" horiz-adv-x="500" 
d="M0 350h400v-350q0 -200 -100 -300h-100v100q0 200 -200 200v350zM0 900h400v-350h-400v350z" />
    <glyph glyph-name="semicolon" unicode="&#x37e;" horiz-adv-x="500" 
d="M0 350h400v-350q0 -200 -100 -300h-100v100q0 200 -200 200v350zM0 900h400v-350h-400v350z" />
    <glyph glyph-name="less" unicode="&#x3c;" horiz-adv-x="1050" 
d="M500 1200h450l-500 -500l500 -500h-450l-500 500z" />
    <glyph glyph-name="equal" unicode="=" 
d="M0 650h1350v-300h-1350v300zM0 1150h1350v-300h-1350v300z" />
    <glyph glyph-name="greater" unicode="&#x3e;" horiz-adv-x="1050" 
d="M950 700l-500 -500h-450l500 500l-500 500h450z" />
    <glyph glyph-name="question" unicode="?" 
d="M700 547q-41 0 -70.5 -29.5t-29.5 -70.5h-400q0 151 124.5 275.5t300.5 124.5l275 3q41 0 70.5 29.5t29.5 70.5t-29.5 70.5t-70.5 29.5h-900v350h975q176 0 300.5 -124.5t124.5 -300.5t-124.5 -300.5t-300.5 -124.5zM200 350h400v-350h-400v350z" />
    <glyph glyph-name="at" unicode="@" 
d="M1000 450q0 41 -29.5 70.5t-70.5 29.5t-70.5 -29.5t-29.5 -70.5t29.5 -70.5t70.5 -29.5t70.5 29.5t29.5 70.5zM550 129v-129h-125q-176 0 -300.5 124.5t-124.5 300.5v550q0 176 124.5 300.5t300.5 124.5h550q176 0 300.5 -124.5t124.5 -300.5v-975h-400v8q-48 -8 -100 -8
q-205 0 -350 129zM1000 892v58q0 41 -29.5 70.5t-70.5 29.5h-400q-41 0 -70.5 -29.5t-29.5 -70.5v-500q0 186 146.5 318t353.5 132q52 0 100 -8z" />
    <glyph glyph-name="A" unicode="A" 
d="M736 600l107 -300h-386l-107 -300h-400l500 1400h500l500 -1400h-400l-107 300l-107 300l-136 380l-136 -380h172z" />
    <glyph glyph-name="B" unicode="B" 
d="M900 350q41 0 70.5 29.5t29.5 70.5t-29.5 70.5t-70.5 29.5h-500l1 -200h499zM401 1050l-1 -200h500q41 0 70.5 29.5t29.5 70.5t-29.5 70.5t-70.5 29.5h-499zM1299 700q101 -117 101 -275q0 -176 -124.5 -300.5t-300.5 -124.5h-975v1400h975q176 0 300.5 -124.5
t124.5 -300.5q0 -158 -101 -275z" />
    <glyph glyph-name="C" unicode="C" 
d="M700 1400h200q100 0 100 100q200 0 400 -200l-250 -250h-450q-124 0 -212 -102.5t-88 -247.5t88 -247.5t212 -102.5h700v-350h-700q-290 0 -495 205t-205 495t205 495t495 205z" />
    <glyph glyph-name="D" unicode="D" 
d="M0 1400h700q290 0 495 -205t205 -495t-205 -495t-495 -205h-700v1400zM400 350h300q124 0 212 102.5t88 247.5t-88 247.5t-212 102.5h-300v-700z" />
    <glyph glyph-name="E" unicode="E" 
d="M400 1050v-200h600v-50l-250 -250h-350v-200h1000v-350h-1400v1399l900 1q100 0 100 100q200 0 400 -200l-250 -250h-750z" />
    <glyph glyph-name="F" unicode="F" 
d="M400 1050v-200h600v-50l-250 -250h-350v-549l-400 -1v1399l900 1q100 0 100 100q200 0 400 -200l-250 -250h-750z" />
    <glyph glyph-name="G" unicode="G" 
d="M700 1050q-124 0 -212 -102.5t-88 -247.5t88 -247.5t212 -102.5h300v200h-200v300h600v-850h-700q-290 0 -495 205t-205 495t205 495t495 205h200q100 0 100 100q200 0 400 -200l-250 -250h-450z" />
    <glyph glyph-name="H" unicode="H" 
d="M400 550v-550h-400v1400h400v-550h600v550h400v-1400h-400v550h-600z" />
    <glyph glyph-name="I" unicode="I" horiz-adv-x="500" 
d="M0 1400h400v-1400h-400v1400z" />
    <glyph glyph-name="J" unicode="J" horiz-adv-x="900" 
d="M100 350q124 0 212 102.5t88 247.5v700h400v-700q0 -290 -205 -495t-495 -205h-100v350h100z" />
    <glyph glyph-name="K" unicode="K" 
d="M900 772v-22l267 -400h233v-350h-450l-314 470l-236 -270v-200h-400v1400h400v-686l600 686h450z" />
    <glyph glyph-name="L" unicode="L" 
d="M400 1400v-1050h1000v-350h-1400v1399z" />
    <glyph glyph-name="M" unicode="M" horiz-adv-x="1900" 
d="M901 0l-501 701v-701h-400v1395l401 5l499 -700l501 700l399 -5v-1395h-400v700z" />
    <glyph glyph-name="N" unicode="N" 
d="M1000 558v842h400v-1400h-555l-445 836v-836h-400v1400h547z" />
    <glyph glyph-name="O" unicode="O" 
d="M1195 1195q205 -205 205 -495t-205 -495t-495 -205t-495 205t-205 495t205 495t495 205t495 -205zM700 1050q-124 0 -212 -102.5t-88 -247.5t88 -247.5t212 -102.5t212 102.5t88 247.5t-88 247.5t-212 102.5z" />
    <glyph glyph-name="P" unicode="P" 
d="M956 794q44 44 44 106t-44 106t-106 44h-450v-300h450q62 0 106 44zM900 400h-500v-399l-400 -1v1399l900 1q207 0 353.5 -146.5t146.5 -353.5t-146.5 -353.5t-353.5 -146.5z" />
    <glyph glyph-name="Q" unicode="Q" 
d="M990 606q10 45 10 94q0 145 -88 247.5t-212 102.5t-212 -102.5t-88 -247.5t88 -247.5t212 -102.5h16l-266 400h450zM926 35q-105 -35 -226 -35q-290 0 -495 205t-205 495t205 495t495 205t495 -205t205 -495q0 -194 -92 -350h92v-350h-450z" />
    <glyph glyph-name="R" unicode="R" 
d="M1167 350h233v-350h-450l-267 400l-233 350h400q62 0 106 44t44 106t-44 106t-106 44h-450v-1049l-400 -1v1399l900 1q207 0 353.5 -146.5t146.5 -353.5t-146 -353q-68 -68 -149 -105z" />
    <glyph glyph-name="S" unicode="S" 
d="M425 550q-176 0 -300.5 124.5t-124.5 300.5t124.5 300.5t300.5 124.5h475q100 0 100 100q200 0 400 -200l-250 -250h-650q-41 0 -70.5 -29.5t-29.5 -70.5t29.5 -70.5t70.5 -29.5h475q176 0 300.5 -124.5t124.5 -300.5t-124.5 -300.5t-300.5 -124.5l-974 1l-1 349h900
q41 0 70.5 29.5t29.5 70.5t-29.5 70.5t-70.5 29.5h-475z" />
    <glyph glyph-name="T" unicode="T" 
d="M800 1050v-1050h-400v1050h-400v350h900q100 0 100 100q200 0 400 -200l-250 -250h-350z" />
    <glyph glyph-name="U" unicode="U" 
d="M0 700v700h400v-700q0 -145 88 -247.5t212 -102.5t212 102.5t88 247.5v700h400v-700q0 -290 -205 -495t-495 -205t-495 205t-205 495z" />
    <glyph glyph-name="V" unicode="V" 
d="M450 0l-500 1400h400l350 -980l350 980h400l-500 -1400h-500z" />
    <glyph glyph-name="W" unicode="W" horiz-adv-x="2152" 
d="M350 0l-400 1400h400l224 -786l226 786h450l224 -786l226 786h400l-402 -1400h-448l-225 789l-227 -789h-448z" />
    <glyph glyph-name="X" unicode="X" 
d="M475 700l-525 700h450l300 -400l300 400h450l-525 -700l525 -700h-450l-300 400l-300 -400h-450z" />
    <glyph glyph-name="Y" unicode="Y" 
d="M500 667l-25 33l-525 700h450l300 -400l300 400h450l-525 -700l-25 -33v-667h-400v667z" />
    <glyph glyph-name="Z" unicode="Z" 
d="M738 1050h-738v350h1450l-787 -1050h737v-350h-1450z" />
    <glyph glyph-name="bracketleft" unicode="[" horiz-adv-x="900" 
d="M800 1499v-349h-400v-900h400v-350h-800v1599h800z" />
    <glyph glyph-name="backslash" unicode="\" horiz-adv-x="952" 
d="M450 0l-500 1400h400l550 -1400h-450z" />
    <glyph glyph-name="bracketright" unicode="]" horiz-adv-x="900" 
d="M800 1499v-1599h-800v350h400v900h-400v349h800z" />
    <glyph glyph-name="asciicircum" unicode="^" horiz-adv-x="1100" 
d="M0 1600v300l500 200l500 -200v-300l-500 200z" />
    <glyph glyph-name="underscore" unicode="_" horiz-adv-x="1300" 
d="M0 -100h1200v-300h-1200v300z" />
    <glyph glyph-name="grave" unicode="`" horiz-adv-x="900" 
d="M800 1600h-248l-552 500h500z" />
    <glyph glyph-name="a" unicode="a" horiz-adv-x="1200" 
d="M579 480l85 -240h-308l-86 -240h-320l400 1120h400l400 -1120h-320l-86 240l-85 240l-109 304l-109 -304h138z" />
    <glyph glyph-name="b" unicode="b" horiz-adv-x="1220" 
d="M720 280q33 0 56.5 23.5t23.5 56.5t-23.5 56.5t-56.5 23.5h-400l1 -160h399zM321 840l-1 -160h400q33 0 56.5 23.5t23.5 56.5t-23.5 56.5t-56.5 23.5h-399zM1039 560q81 -94 81 -220q0 -141 -99.5 -240.5t-240.5 -99.5h-780v1120h780q141 0 240.5 -99.5t99.5 -240.5
q0 -126 -81 -220z" />
    <glyph glyph-name="c" unicode="c" horiz-adv-x="1220" 
d="M560 1120h160q80 0 80 80q160 0 320 -160l-200 -200h-360q-99 0 -169.5 -82t-70.5 -198t70.5 -198t169.5 -82h560v-280h-560q-232 0 -396 164t-164 396t164 396t396 164z" />
    <glyph glyph-name="d" unicode="d" horiz-adv-x="1220" 
d="M0 1120h560q232 0 396 -164t164 -396t-164 -396t-396 -164h-560v1120zM320 280h240q99 0 169.5 82t70.5 198t-70.5 198t-169.5 82h-240v-560z" />
    <glyph glyph-name="e" unicode="e" horiz-adv-x="1220" 
d="M320 840v-160h480v-40l-200 -200h-280v-160h800v-280h-1120v1119l720 1q80 0 80 80q160 0 320 -160l-200 -200h-600z" />
    <glyph glyph-name="f" unicode="f" horiz-adv-x="1220" 
d="M320 840v-160h480v-40l-200 -200h-280v-439l-320 -1v1119l720 1q80 0 80 80q160 0 320 -160l-200 -200h-600z" />
    <glyph glyph-name="g" unicode="g" horiz-adv-x="1220" 
d="M560 840q-99 0 -169.5 -82t-70.5 -198t70.5 -198t169.5 -82h240v160h-160v240h480v-680h-560q-232 0 -396 164t-164 396t164 396t396 164h160q80 0 80 80q160 0 320 -160l-200 -200h-360z" />
    <glyph glyph-name="h" unicode="h" horiz-adv-x="1220" 
d="M320 440v-440h-320v1120h320v-440h480v440h320v-1120h-320v440h-480z" />
    <glyph glyph-name="i" unicode="i" horiz-adv-x="420" 
d="M0 1120h320v-1120h-320v1120z" />
    <glyph glyph-name="j" unicode="j" horiz-adv-x="740" 
d="M80 280q99 0 169.5 82t70.5 198v560h320v-560q0 -232 -164 -396t-396 -164h-80v280h80z" />
    <glyph glyph-name="k" unicode="k" horiz-adv-x="1210" 
d="M720 618v-18l214 -320h186v-280h-360l-251 376l-189 -216v-160h-320v1120h320v-549l480 549h360z" />
    <glyph glyph-name="l" unicode="l" horiz-adv-x="1220" 
d="M320 1120v-840h800v-280h-1120v1119z" />
    <glyph glyph-name="m" unicode="m" horiz-adv-x="1540" 
d="M721 0l-401 561v-561h-320v1116l321 4l399 -560l401 560l319 -4v-1116h-320v560z" />
    <glyph glyph-name="n" unicode="n" horiz-adv-x="1220" 
d="M800 446v674h320v-1120h-444l-356 669v-669h-320v1120h438z" />
    <glyph glyph-name="o" unicode="o" horiz-adv-x="1220" 
d="M956 956q164 -164 164 -396t-164 -396t-396 -164t-396 164t-164 396t164 396t396 164t396 -164zM560 840q-99 0 -169.5 -82t-70.5 -198t70.5 -198t169.5 -82t169.5 82t70.5 198t-70.5 198t-169.5 82z" />
    <glyph glyph-name="p" unicode="p" horiz-adv-x="1220" 
d="M765 635q35 35 35 85t-35 85t-85 35h-360v-240h360q50 0 85 35zM720 320h-400v-319l-320 -1v1119l720 1q166 0 283 -117t117 -283t-117 -283t-283 -117z" />
    <glyph glyph-name="q" unicode="q" horiz-adv-x="1220" 
d="M792 485q8 36 8 75q0 116 -70.5 198t-169.5 82t-169.5 -82t-70.5 -198t70.5 -198t169.5 -82h13l-213 320h360zM741 28q-84 -28 -181 -28q-232 0 -396 164t-164 396t164 396t396 164t396 -164t164 -396q0 -155 -74 -280h74v-280h-360z" />
    <glyph glyph-name="r" unicode="r" horiz-adv-x="1220" 
d="M934 280h186v-280h-360l-214 320l-186 280h320q50 0 85 35t35 85t-35 85t-85 35h-360v-839l-320 -1v1119l720 1q166 0 283 -117t117 -283t-117 -282q-54 -55 -119 -84z" />
    <glyph glyph-name="s" unicode="s" horiz-adv-x="1220" 
d="M340 440q-141 0 -240.5 99.5t-99.5 240.5t99.5 240.5t240.5 99.5h380q80 0 80 80q160 0 320 -160l-200 -200h-520q-33 0 -56.5 -23.5t-23.5 -56.5t23.5 -56.5t56.5 -23.5h380q141 0 240.5 -99.5t99.5 -240.5t-99.5 -240.5t-240.5 -99.5l-779 1l-1 279h720q33 0 56.5 23.5
t23.5 56.5t-23.5 56.5t-56.5 23.5h-380z" />
    <glyph glyph-name="t" unicode="t" horiz-adv-x="1220" 
d="M640 840v-840h-320v840h-320v280h720q80 0 80 80q160 0 320 -160l-200 -200h-280z" />
    <glyph glyph-name="u" unicode="u" horiz-adv-x="1220" 
d="M0 560v560h320v-560q0 -116 70.5 -198t169.5 -82t169.5 82t70.5 198v560h320v-560q0 -232 -164 -396t-396 -164t-396 164t-164 396z" />
    <glyph glyph-name="v" unicode="v" horiz-adv-x="1200" 
d="M350 0l-400 1120h320l280 -784l280 784h320l-400 -1120h-400z" />
    <glyph glyph-name="w" unicode="w" horiz-adv-x="1722" 
d="M270 0l-320 1120h320l179 -629l181 629h360l179 -629l181 629h320l-322 -1120h-358l-180 631l-182 -631h-358z" />
    <glyph glyph-name="x" unicode="x" horiz-adv-x="1200" 
d="M370 560l-420 560h360l240 -320l240 320h360l-420 -560l420 -560h-360l-240 320l-240 -320h-360z" />
    <glyph glyph-name="y" unicode="y" horiz-adv-x="1200" 
d="M390 534l-20 26l-420 560h360l240 -320l240 320h360l-420 -560l-20 -26v-534h-320v534z" />
    <glyph glyph-name="z" unicode="z" horiz-adv-x="1200" 
d="M580 840h-590v280h1160l-630 -840h590v-280h-1160z" />
    <glyph glyph-name="braceleft" unicode="{" horiz-adv-x="800" 
d="M150 950v125q0 176 124.5 300.5t300.5 124.5h125v-350h-50q-41 0 -70.5 -29.5t-29.5 -70.5v-100h-1q-7 -142 -100 -250q93 -108 100 -250h1v-100q0 -41 29.5 -70.5t70.5 -29.5h50v-350h-125q-176 0 -300.5 124.5t-124.5 300.5v125q0 41 -29.5 70.5t-70.5 29.5h-50v300h50
q41 0 70.5 29.5t29.5 70.5z" />
    <glyph glyph-name="bar" unicode="|" horiz-adv-x="500" 
d="M0 1500h400v-1700h-400v1700z" />
    <glyph glyph-name="braceright" unicode="}" horiz-adv-x="800" 
d="M579.5 879.5q29.5 -29.5 70.5 -29.5h50v-300h-50q-41 0 -70.5 -29.5t-29.5 -70.5v-125q0 -176 -124.5 -300.5t-300.5 -124.5h-125v350h50q41 0 70.5 29.5t29.5 70.5v100h1q7 142 100 250q-93 108 -100 250h-1v100q0 41 -29.5 70.5t-70.5 29.5h-50v350h125
q176 0 300.5 -124.5t124.5 -300.5v-125q0 -41 29.5 -70.5z" />
    <glyph glyph-name="asciitilde" unicode="~" horiz-adv-x="1100" 
d="M0 1600v300q150 150 300 152q150 -2 200 -52t200 -52q150 2 300 152v-300q-150 -149 -300 -157q-150 8 -200 57q-50 50 -200 50t-300 -150z" />
    <glyph glyph-name="exclamdown" unicode="&#xa1;" horiz-adv-x="500" 
d="M0 1050v350h400v-350h-400zM400 0h-400v950h400v-950z" />
    <glyph glyph-name="cent" unicode="&#xa2;" 
d="M500 1292v108h400v-100q100 0 100 100q200 0 400 -200l-250 -250h-500v-3q-104 0 -177 -73t-73 -177t73 -177t177 -73l750 3v-350h-500v-100h-400v108q-185 28 -324 168q-176 175 -176 424t176 425q139 139 324 167z" />
    <glyph glyph-name="sterling" unicode="&#xa3;" 
d="M1400 350v-350h-1400v350h200v200h-200v300h200v125q0 176 124.5 300.5t300.5 124.5h75q100 0 100 100q200 0 400 -200l-250 -250h-250q-41 0 -70.5 -29.5t-29.5 -70.5v-100h600v-300h-600v-200h800z" />
    <glyph glyph-name="currency" unicode="&#xa4;" 
d="M770.5 629.5q29.5 29.5 29.5 70.5t-29.5 70.5t-70.5 29.5t-70.5 -29.5t-29.5 -70.5t29.5 -70.5t70.5 -29.5t70.5 29.5zM594 259l-194 -259h-450l336 447q-86 111 -86 253t86 253l-336 447h450l194 -259q51 9 106 9t106 -9l194 259h450l-336 -447q86 -111 86 -253
t-86 -253l336 -447h-450l-194 259q-51 -9 -106 -9t-106 9z" />
    <glyph glyph-name="yen" unicode="&#xa5;" 
d="M900 100v-100h-400v100h-400v300h400v100h-400v300h300l-450 600h450l300 -400l300 400h450l-450 -600h300v-300h-400v-100h400v-300h-400z" />
    <glyph glyph-name="brokenbar" unicode="&#xa6;" horiz-adv-x="500" 
d="M0 850v650h400v-650h-400zM400 550v-750h-400v750h400z" />
    <glyph glyph-name="section" unicode="&#xa7;" 
d="M770.5 629.5q29.5 29.5 29.5 70.5t-29.5 70.5t-70.5 29.5t-70.5 -29.5t-29.5 -70.5t29.5 -70.5t70.5 -29.5t70.5 29.5zM999 339q-110 -76 -249 -87v-2h150q41 0 71 30q25 25 28 59zM210 607q-46 28 -85 68q-125 124 -125 300v100q0 176 124.5 300.5t300.5 124.5h475
q100 0 100 100q200 0 400 -200l-250 -250h-400v-2q175 -14 304 -130q108 -98 136 -225q46 -28 86 -67q124 -125 124 -301v-100q0 -176 -124.5 -300.5t-300.5 -124.5h-975v350h650v2q-175 14 -303 130q-109 98 -137 225zM400 1061q110 76 250 87v2h-150q-41 0 -70 -29
q-26 -26 -30 -60z" />
    <glyph glyph-name="dieresis" unicode="&#xa8;" horiz-adv-x="1100" 
d="M0 1950h400v-350h-400v350zM600 1950h400v-350h-400v350z" />
    <glyph glyph-name="copyright" unicode="&#xa9;" horiz-adv-x="1200" 
d="M510 1450h100q50 0 50 50q100 0 200 -100l-125 -125h-225q-62 0 -106 -51t-44 -124q0 -72 44 -123.5t106 -51.5h350v-175h-350q-145 0 -247.5 102.5t-102.5 247.5t102.5 247.5t247.5 102.5zM550 1600q-186 0 -318 -146.5t-132 -353.5t132 -353.5t318 -146.5t318 146.5
t132 353.5t-132 353.5t-318 146.5zM939 1524.5q161 -175.5 161 -424.5t-161 -424.5t-389 -175.5t-389 175.5t-161 424.5t161 424.5t389 175.5t389 -175.5z" />
    <glyph glyph-name="ordfeminine" unicode="&#xaa;" horiz-adv-x="1650" 
d="M0 200v1100q0 200 200 200h1100q200 0 200 -200v-1100q0 -200 -200 -200h-1100q-200 0 -200 200zM1475 201v1099q0 175 -175 175h-1100q-174 0 -175 -175v-1100q1 -175 175 -175h1101q174 0 174 176z" />
    <glyph glyph-name="guillemotleft" unicode="&#xab;" horiz-adv-x="1700" 
d="M500 1200h450l-500 -500l500 -500h-450l-500 500zM1150 1200h450l-500 -500l500 -500h-450l-500 500z" />
    <glyph glyph-name="logicalnot" unicode="&#xac;" horiz-adv-x="1650" 
d="M0 200v1100q0 200 200 200h1100q200 0 200 -200v-1100q0 -200 -200 -200h-1100q-200 0 -200 200zM1475 201v1099q0 175 -175 175h-1100q-174 0 -175 -175v-1100q1 -175 175 -175h1101q174 0 174 176z" />
    <glyph glyph-name="registered" unicode="&#xae;" horiz-adv-x="1200" 
d="M905 792q95 132 95 308q0 207 -132 353.5t-318 146.5t-318 -146q-2 -3 -5 -6h428q104 0 177 -73t73 -177q0 -103 -73 -176q-34 -34 -74 -53l31 -46h116v-131zM205 1421q-105 -136 -105 -321t105 -321v642zM231 748q0 -1 1 -1q132 -147 318 -147t318 147q1 0 1 1h-189
l-133 200l-117 175h200q31 0 53 22t22 53t-22 53t-53 22h-225v-524zM1100 1100q0 -249 -161 -424.5t-389 -175.5t-389 175.5t-161 424.5t161 424.5t389 175.5t389 -175.5t161 -424.5z" />
    <glyph glyph-name="macron" unicode="&#xaf;" horiz-adv-x="1650" 
d="M0 200v1100q0 200 200 200h1100q200 0 200 -200v-1100q0 -200 -200 -200h-1100q-200 0 -200 200zM1475 201v1099q0 175 -175 175h-1100q-174 0 -175 -175v-1100q1 -175 175 -175h1101q174 0 174 176z" />
    <glyph glyph-name="degree" unicode="&#xb0;" horiz-adv-x="674" 
d="M339 1372q-86 0 -147.5 -61t-61.5 -148t61 -147t148 -60t147 60t60 147t-60.5 148t-146.5 61zM339 1442q115 0 196 -81.5t81 -196.5q0 -114 -82 -196t-197 -82q-117 0 -197 81t-80 197t81.5 197t197.5 81z" />
    <glyph glyph-name="plusminus" unicode="&#xb1;" horiz-adv-x="1650" 
d="M0 200v1100q0 200 200 200h1100q200 0 200 -200v-1100q0 -200 -200 -200h-1100q-200 0 -200 200zM1475 201v1099q0 175 -175 175h-1100q-174 0 -175 -175v-1100q1 -175 175 -175h1101q174 0 174 176z" />
    <glyph glyph-name="uni00B2" unicode="&#xb2;" horiz-adv-x="1650" 
d="M0 200v1100q0 200 200 200h1100q200 0 200 -200v-1100q0 -200 -200 -200h-1100q-200 0 -200 200zM1475 201v1099q0 175 -175 175h-1100q-174 0 -175 -175v-1100q1 -175 175 -175h1101q174 0 174 176z" />
    <glyph glyph-name="uni00B3" unicode="&#xb3;" horiz-adv-x="1650" 
d="M0 200v1100q0 200 200 200h1100q200 0 200 -200v-1100q0 -200 -200 -200h-1100q-200 0 -200 200zM1475 201v1099q0 175 -175 175h-1100q-174 0 -175 -175v-1100q1 -175 175 -175h1101q174 0 174 176z" />
    <glyph glyph-name="acute" unicode="&#xb4;" horiz-adv-x="900" 
d="M300 2100h500l-552 -500h-248z" />
    <glyph glyph-name="mu" unicode="&#xb5;" 
d="M400 700q0 -145 88 -247.5t212 -102.5t212 102.5t88 247.5v700h400v-700q0 -290 -205 -495t-495 -205q-164 0 -300 65v-65h-400v1400h400v-700z" />
    <glyph glyph-name="paragraph" unicode="&#xb6;" horiz-adv-x="1024" 
d="M929 1435v-70h-127v-1365h-82v1365h-166v-1365h-84v738q-174 8 -275.5 102.5t-101.5 245.5q0 157 107.5 253t285.5 96h443z" />
    <glyph glyph-name="periodcentered" unicode="&#xb7;" horiz-adv-x="500" 
d="M0 900h400v-350h-400v350z" />
    <glyph glyph-name="periodcentered" unicode="&#x2219;" horiz-adv-x="500" 
d="M0 900h400v-350h-400v350z" />
    <glyph glyph-name="cedilla" unicode="&#xb8;" horiz-adv-x="851" 
d="M750 100v-125q0 -176 -124.5 -300.5t-300.5 -124.5h-325v350h250q41 0 70.5 29.5t29.5 70.5v100h400z" />
    <glyph glyph-name="uni00B9" unicode="&#xb9;" horiz-adv-x="1650" 
d="M0 200v1100q0 200 200 200h1100q200 0 200 -200v-1100q0 -200 -200 -200h-1100q-200 0 -200 200zM1475 201v1099q0 175 -175 175h-1100q-174 0 -175 -175v-1100q1 -175 175 -175h1101q174 0 174 176z" />
    <glyph glyph-name="ordmasculine" unicode="&#xba;" horiz-adv-x="1650" 
d="M0 200v1100q0 200 200 200h1100q200 0 200 -200v-1100q0 -200 -200 -200h-1100q-200 0 -200 200zM1475 201v1099q0 175 -175 175h-1100q-174 0 -175 -175v-1100q1 -175 175 -175h1101q174 0 174 176z" />
    <glyph glyph-name="guillemotright" unicode="&#xbb;" horiz-adv-x="1700" 
d="M1600 700l-500 -500h-450l500 500l-500 500h450zM950 700l-500 -500h-450l500 500l-500 500h450z" />
    <glyph glyph-name="onequarter" unicode="&#xbc;" horiz-adv-x="1650" 
d="M0 200v1100q0 200 200 200h1100q200 0 200 -200v-1100q0 -200 -200 -200h-1100q-200 0 -200 200zM1475 201v1099q0 175 -175 175h-1100q-174 0 -175 -175v-1100q1 -175 175 -175h1101q174 0 174 176z" />
    <glyph glyph-name="onehalf" unicode="&#xbd;" horiz-adv-x="1650" 
d="M0 200v1100q0 200 200 200h1100q200 0 200 -200v-1100q0 -200 -200 -200h-1100q-200 0 -200 200zM1475 201v1099q0 175 -175 175h-1100q-174 0 -175 -175v-1100q1 -175 175 -175h1101q174 0 174 176z" />
    <glyph glyph-name="threequarters" unicode="&#xbe;" horiz-adv-x="1650" 
d="M0 200v1100q0 200 200 200h1100q200 0 200 -200v-1100q0 -200 -200 -200h-1100q-200 0 -200 200zM1475 201v1099q0 175 -175 175h-1100q-174 0 -175 -175v-1100q1 -175 175 -175h1101q174 0 174 176z" />
    <glyph glyph-name="questiondown" unicode="&#xbf;" 
d="M700 853q41 0 70.5 29.5t29.5 70.5h400q0 -151 -124.5 -275.5t-300.5 -124.5l-275 -3q-41 0 -70.5 -29.5t-29.5 -70.5t29.5 -70.5t70.5 -29.5h900v-350h-975q-176 0 -300.5 124.5t-124.5 300.5t124.5 300.5t300.5 124.5zM1200 1050h-400v350h400v-350z" />
    <glyph glyph-name="Agrave" unicode="&#xc0;" 
d="M736 600l107 -300h-386l-107 -300h-400l500 1400h500l500 -1400h-400l-107 300l-107 300l-136 380l-136 -380h172zM1100 1600h-248l-552 500h500z" />
    <glyph glyph-name="Aacute" unicode="&#xc1;" 
d="M736 600l107 -300h-386l-107 -300h-400l500 1400h500l500 -1400h-400l-107 300l-107 300l-136 380l-136 -380h172zM600 2100h500l-552 -500h-248z" />
    <glyph glyph-name="Acircumflex" unicode="&#xc2;" 
d="M736 600l107 -300h-386l-107 -300h-400l500 1400h500l500 -1400h-400l-107 300l-107 300l-136 380l-136 -380h172zM200 1600v300l500 200l500 -200v-300l-500 200z" />
    <glyph glyph-name="Atilde" unicode="&#xc3;" 
d="M736 600l107 -300h-386l-107 -300h-400l500 1400h500l500 -1400h-400l-107 300l-107 300l-136 380l-136 -380h172zM200 1600v300q150 150 300 152q150 -2 200 -52t200 -52q150 2 300 152v-300q-150 -149 -300 -157q-150 8 -200 57q-50 50 -200 50t-300 -150z" />
    <glyph glyph-name="Adieresis" unicode="&#xc4;" 
d="M736 600l107 -300h-386l-107 -300h-400l500 1400h500l500 -1400h-400l-107 300l-107 300l-136 380l-136 -380h172zM200 1950h400v-350h-400v350zM800 1950h400v-350h-400v350z" />
    <glyph glyph-name="Aring" unicode="&#xc5;" 
d="M736 600l107 -300h-386l-107 -300h-400l500 1400h500l500 -1400h-400l-107 300l-107 300l-136 380l-136 -380h172zM700 1600q-124 0 -212 88t-88 212t88 212t212 88t212 -88t88 -212t-88 -212t-212 -88zM770.5 1829.5q29.5 29.5 29.5 70.5t-29.5 70.5t-70.5 29.5
t-70.5 -29.5t-29.5 -70.5t29.5 -70.5t70.5 -29.5t70.5 29.5z" />
    <glyph glyph-name="AE" unicode="&#xc6;" horiz-adv-x="2445" 
d="M948 286l-5 14l-107 300l-136 380l-136 -380h172l107 -300h-386l-107 -300h-400l500 1400h500v-1l898 1q100 0 100 100q200 0 400 -200l-250 -250h-750v-200h600v-50l-250 -250h-350v-200h1000v-350h-1400v286z" />
    <glyph glyph-name="Ccedilla" unicode="&#xc7;" 
d="M800 0h-100q-290 0 -495 205t-205 495t205 495t495 205h200q100 0 100 100q200 0 400 -200l-250 -250h-450q-124 0 -212 -102.5t-88 -247.5t88 -247.5t212 -102.5h700v-350h-200v-25q0 -176 -124.5 -300.5t-300.5 -124.5h-325v350h250q41 0 70.5 29.5t29.5 70.5z" />
    <glyph glyph-name="Egrave" unicode="&#xc8;" 
d="M400 1050v-200h600v-50l-250 -250h-350v-200h1000v-350h-1400v1399l900 1q100 0 100 100q200 0 400 -200l-250 -250h-750zM1100 1600h-248l-552 500h500z" />
    <glyph glyph-name="Eacute" unicode="&#xc9;" 
d="M400 1050v-200h600v-50l-250 -250h-350v-200h1000v-350h-1400v1399l900 1q100 0 100 100q200 0 400 -200l-250 -250h-750zM600 2100h500l-552 -500h-248z" />
    <glyph glyph-name="Ecircumflex" unicode="&#xca;" 
d="M400 1050v-200h600v-50l-250 -250h-350v-200h1000v-350h-1400v1399l900 1q100 0 100 100q200 0 400 -200l-250 -250h-750zM200 1600v300l500 200l500 -200v-300l-500 200z" />
    <glyph glyph-name="Edieresis" unicode="&#xcb;" 
d="M400 1050v-200h600v-50l-250 -250h-350v-200h1000v-350h-1400v1399l900 1q100 0 100 100q200 0 400 -200l-250 -250h-750zM200 1950h400v-350h-400v350zM800 1950h400v-350h-400v350z" />
    <glyph glyph-name="Igrave" unicode="&#xcc;" horiz-adv-x="500" 
d="M0 1400h400v-1400h-400v1400zM600 1600h-248l-552 500h500z" />
    <glyph glyph-name="Iacute" unicode="&#xcd;" horiz-adv-x="500" 
d="M0 1400h400v-1400h-400v1400zM100 2100h500l-552 -500h-248z" />
    <glyph glyph-name="Icircumflex" unicode="&#xce;" horiz-adv-x="500" 
d="M0 1400h400v-1400h-400v1400zM-300 1600v300l500 200l500 -200v-300l-500 200z" />
    <glyph glyph-name="Idieresis" unicode="&#xcf;" horiz-adv-x="500" 
d="M0 1400h400v-1400h-400v1400zM-300 1950h400v-350h-400v350zM300 1950h400v-350h-400v350z" />
    <glyph glyph-name="Eth" unicode="&#xd0;" 
d="M500 600v-250h200q124 0 212 102.5t88 247.5t-88 247.5t-212 102.5h-200v-150h200v-300h-200zM100 900v500h600q290 0 495 -205t205 -495t-205 -495t-495 -205h-600v600h-100v300h100z" />
    <glyph glyph-name="Ntilde" unicode="&#xd1;" 
d="M1000 558v842h400v-1400h-555l-445 836v-836h-400v1400h547zM200 1600v300q150 150 300 152q150 -2 200 -52t200 -52q150 2 300 152v-300q-150 -149 -300 -157q-150 8 -200 57q-50 50 -200 50t-300 -150z" />
    <glyph glyph-name="Ograve" unicode="&#xd2;" 
d="M1195 1195q205 -205 205 -495t-205 -495t-495 -205t-495 205t-205 495t205 495t495 205t495 -205zM700 1050q-124 0 -212 -102.5t-88 -247.5t88 -247.5t212 -102.5t212 102.5t88 247.5t-88 247.5t-212 102.5zM1100 1600h-248l-552 500h500z" />
    <glyph glyph-name="Oacute" unicode="&#xd3;" 
d="M1195 1195q205 -205 205 -495t-205 -495t-495 -205t-495 205t-205 495t205 495t495 205t495 -205zM700 1050q-124 0 -212 -102.5t-88 -247.5t88 -247.5t212 -102.5t212 102.5t88 247.5t-88 247.5t-212 102.5zM600 2100h500l-552 -500h-248z" />
    <glyph glyph-name="Ocircumflex" unicode="&#xd4;" 
d="M1195 1195q205 -205 205 -495t-205 -495t-495 -205t-495 205t-205 495t205 495t495 205t495 -205zM700 1050q-124 0 -212 -102.5t-88 -247.5t88 -247.5t212 -102.5t212 102.5t88 247.5t-88 247.5t-212 102.5zM200 1600v300l500 200l500 -200v-300l-500 200z" />
    <glyph glyph-name="Otilde" unicode="&#xd5;" 
d="M1195 1195q205 -205 205 -495t-205 -495t-495 -205t-495 205t-205 495t205 495t495 205t495 -205zM700 1050q-124 0 -212 -102.5t-88 -247.5t88 -247.5t212 -102.5t212 102.5t88 247.5t-88 247.5t-212 102.5zM200 1600v300q150 150 300 152q150 -2 200 -52t200 -52
q150 2 300 152v-300q-150 -149 -300 -157q-150 8 -200 57q-50 50 -200 50t-300 -150z" />
    <glyph glyph-name="Odieresis" unicode="&#xd6;" 
d="M1195 1195q205 -205 205 -495t-205 -495t-495 -205t-495 205t-205 495t205 495t495 205t495 -205zM700 1050q-124 0 -212 -102.5t-88 -247.5t88 -247.5t212 -102.5t212 102.5t88 247.5t-88 247.5t-212 102.5zM200 1950h400v-350h-400v350zM800 1950h400v-350h-400v350z
" />
    <glyph glyph-name="multiply" unicode="&#xd7;" horiz-adv-x="1300" 
d="M375 700l-425 500h450l200 -235l200 235h450l-425 -500l425 -500h-450l-200 235l-200 -235h-450z" />
    <glyph glyph-name="Oslash" unicode="&#xd8;" 
d="M412 597l275 453q-116 -5 -199 -102q-88 -103 -88 -248q0 -55 12 -103zM562 12l-7 -12h-505l136 224q-186 200 -186 476q0 290 205 495t495 205q98 0 186 -23l14 23h448l-130 -229q182 -198 182 -471q0 -290 -205 -495t-495 -205q-72 0 -138 12zM994 775l-238 -419
q89 18 156 97q88 102 88 247q0 39 -6 75z" />
    <glyph glyph-name="Ugrave" unicode="&#xd9;" 
d="M0 700v700h400v-700q0 -145 88 -247.5t212 -102.5t212 102.5t88 247.5v700h400v-700q0 -290 -205 -495t-495 -205t-495 205t-205 495zM1100 1600h-248l-552 500h500z" />
    <glyph glyph-name="Uacute" unicode="&#xda;" 
d="M0 700v700h400v-700q0 -145 88 -247.5t212 -102.5t212 102.5t88 247.5v700h400v-700q0 -290 -205 -495t-495 -205t-495 205t-205 495zM600 2100h500l-552 -500h-248z" />
    <glyph glyph-name="Ucircumflex" unicode="&#xdb;" 
d="M0 700v700h400v-700q0 -145 88 -247.5t212 -102.5t212 102.5t88 247.5v700h400v-700q0 -290 -205 -495t-495 -205t-495 205t-205 495zM200 1600v300l500 200l500 -200v-300l-500 200z" />
    <glyph glyph-name="Udieresis" unicode="&#xdc;" 
d="M0 700v700h400v-700q0 -145 88 -247.5t212 -102.5t212 102.5t88 247.5v700h400v-700q0 -290 -205 -495t-495 -205t-495 205t-205 495zM200 1950h400v-350h-400v350zM800 1950h400v-350h-400v350z" />
    <glyph glyph-name="Yacute" unicode="&#xdd;" 
d="M500 667l-25 33l-525 700h450l300 -400l300 400h450l-525 -700l-25 -33v-667h-400v667zM600 2100h500l-552 -500h-248z" />
    <glyph glyph-name="Thorn" unicode="&#xde;" 
d="M956 594q44 44 44 106t-44 106t-106 44h-450v-300h450q62 0 106 44zM900 200h-500v-199l-400 -1v1400h400v-201l499 1h1q207 0 353.5 -146.5t146.5 -353.5t-146.5 -353.5t-353.5 -146.5z" />
    <glyph glyph-name="germandbls" unicode="&#xdf;" 
d="M400 1h-399l-1 974q0 176 124.5 300.5t300.5 124.5h550q176 0 300.5 -124.5t124.5 -300.5q0 -158 -101 -275q101 -117 101 -275q0 -176 -124.5 -300.5t-300.5 -124.5h-375v350h300q41 0 70.5 29.5t29.5 70.5t-29.5 70.5t-70.5 29.5h-300v300h300q41 0 70.5 29.5
t29.5 70.5t-29.5 70.5t-70.5 29.5h-400q-41 0 -70.5 -29.5t-29.5 -70.5v-949z" />
    <glyph glyph-name="agrave" unicode="&#xe0;" horiz-adv-x="1200" 
d="M579 480l85 -240h-308l-86 -240h-320l400 1120h400l400 -1120h-320l-86 240l-85 240l-109 304l-109 -304h138zM870 1280h-198l-442 400h400z" />
    <glyph glyph-name="aacute" unicode="&#xe1;" horiz-adv-x="1200" 
d="M579 480l85 -240h-308l-86 -240h-320l400 1120h400l400 -1120h-320l-86 240l-85 240l-109 304l-109 -304h138zM470 1680h400l-442 -400h-198z" />
    <glyph glyph-name="acircumflex" unicode="&#xe2;" horiz-adv-x="1200" 
d="M579 480l85 -240h-308l-86 -240h-320l400 1120h400l400 -1120h-320l-86 240l-85 240l-109 304l-109 -304h138zM150 1280v240l400 160l400 -160v-240l-400 160z" />
    <glyph glyph-name="atilde" unicode="&#xe3;" horiz-adv-x="1200" 
d="M579 480l85 -240h-308l-86 -240h-320l400 1120h400l400 -1120h-320l-86 240l-85 240l-109 304l-109 -304h138zM150 1280v240q120 120 240 122q120 -2 160 -42t160 -42q120 2 240 122v-240q-120 -119 -240 -126q-120 7 -160 46q-40 40 -160 40t-240 -120z" />
    <glyph glyph-name="adieresis" unicode="&#xe4;" horiz-adv-x="1200" 
d="M579 480l85 -240h-308l-86 -240h-320l400 1120h400l400 -1120h-320l-86 240l-85 240l-109 304l-109 -304h138zM150 1560h320v-280h-320v280zM630 1560h320v-280h-320v280z" />
    <glyph glyph-name="aring" unicode="&#xe5;" horiz-adv-x="1200" 
d="M579 480l85 -240h-308l-86 -240h-320l400 1120h400l400 -1120h-320l-86 240l-85 240l-109 304l-109 -304h138zM550 1280q-99 0 -169.5 70.5t-70.5 169.5t70.5 169.5t169.5 70.5t169.5 -70.5t70.5 -169.5t-70.5 -169.5t-169.5 -70.5zM606.5 1463.5q23.5 23.5 23.5 56.5
t-23.5 56.5t-56.5 23.5t-56.5 -23.5t-23.5 -56.5t23.5 -56.5t56.5 -23.5t56.5 23.5z" />
    <glyph glyph-name="ae" unicode="&#xe6;" horiz-adv-x="1965" 
d="M748 229l-4 11l-85 240l-109 304l-109 -304h138l85 -240h-308l-86 -240h-320l400 1120h400v-1l718 1q80 0 80 80q160 0 320 -160l-200 -200h-600v-160h480v-40l-200 -200h-280v-160h800v-280h-1120v229z" />
    <glyph glyph-name="ccedilla" unicode="&#xe7;" horiz-adv-x="1220" 
d="M640 0h-80q-232 0 -396 164t-164 396t164 396t396 164h160q80 0 80 80q160 0 320 -160l-200 -200h-360q-99 0 -169.5 -82t-70.5 -198t70.5 -198t169.5 -82h560v-280h-160v-20q0 -141 -99.5 -240.5t-240.5 -99.5h-260v280h200q33 0 56.5 23.5t23.5 56.5z" />
    <glyph glyph-name="egrave" unicode="&#xe8;" horiz-adv-x="1220" 
d="M320 840v-160h480v-40l-200 -200h-280v-160h800v-280h-1120v1119l720 1q80 0 80 80q160 0 320 -160l-200 -200h-600zM880 1280h-198l-442 400h400z" />
    <glyph glyph-name="eacute" unicode="&#xe9;" horiz-adv-x="1220" 
d="M320 840v-160h480v-40l-200 -200h-280v-160h800v-280h-1120v1119l720 1q80 0 80 80q160 0 320 -160l-200 -200h-600zM480 1680h400l-442 -400h-198z" />
    <glyph glyph-name="ecircumflex" unicode="&#xea;" horiz-adv-x="1220" 
d="M320 840v-160h480v-40l-200 -200h-280v-160h800v-280h-1120v1119l720 1q80 0 80 80q160 0 320 -160l-200 -200h-600zM160 1280v240l400 160l400 -160v-240l-400 160z" />
    <glyph glyph-name="edieresis" unicode="&#xeb;" horiz-adv-x="1220" 
d="M320 840v-160h480v-40l-200 -200h-280v-160h800v-280h-1120v1119l720 1q80 0 80 80q160 0 320 -160l-200 -200h-600zM160 1560h320v-280h-320v280zM640 1560h320v-280h-320v280z" />
    <glyph glyph-name="igrave" unicode="&#xec;" horiz-adv-x="340" 
d="M-40 1120h320v-1120h-320v1120zM440 1280h-198l-442 400h400z" />
    <glyph glyph-name="iacute" unicode="&#xed;" horiz-adv-x="340" 
d="M-40 1120h320v-1120h-320v1120zM40 1680h400l-442 -400h-198z" />
    <glyph glyph-name="icircumflex" unicode="&#xee;" horiz-adv-x="300" 
d="M-60 1120h320v-1120h-320v1120zM-300 1280v240l400 160l400 -160v-240l-400 160z" />
    <glyph glyph-name="idieresis" unicode="&#xef;" horiz-adv-x="300" 
d="M-60 1120h320v-1120h-320v1120zM-300 1560h320v-280h-320v280zM180 1560h320v-280h-320v280z" />
    <glyph glyph-name="eth" unicode="&#xf0;" horiz-adv-x="1220" 
d="M400 480v-200h160q99 0 169.5 82t70.5 198t-70.5 198t-169.5 82h-160v-120h160v-240h-160zM80 720v400h480q232 0 396 -164t164 -396t-164 -396t-396 -164h-480v480h-80v240h80z" />
    <glyph glyph-name="ntilde" unicode="&#xf1;" horiz-adv-x="1220" 
d="M800 446v674h320v-1120h-444l-356 669v-669h-320v1120h438zM160 1280v240q120 120 240 122q120 -2 160 -42t160 -42q120 2 240 122v-240q-120 -119 -240 -126q-120 7 -160 46q-40 40 -160 40t-240 -120z" />
    <glyph glyph-name="ograve" unicode="&#xf2;" horiz-adv-x="1220" 
d="M956 956q164 -164 164 -396t-164 -396t-396 -164t-396 164t-164 396t164 396t396 164t396 -164zM560 840q-99 0 -169.5 -82t-70.5 -198t70.5 -198t169.5 -82t169.5 82t70.5 198t-70.5 198t-169.5 82zM880 1280h-198l-442 400h400z" />
    <glyph glyph-name="oacute" unicode="&#xf3;" horiz-adv-x="1220" 
d="M956 956q164 -164 164 -396t-164 -396t-396 -164t-396 164t-164 396t164 396t396 164t396 -164zM560 840q-99 0 -169.5 -82t-70.5 -198t70.5 -198t169.5 -82t169.5 82t70.5 198t-70.5 198t-169.5 82zM480 1680h400l-442 -400h-198z" />
    <glyph glyph-name="ocircumflex" unicode="&#xf4;" horiz-adv-x="1220" 
d="M956 956q164 -164 164 -396t-164 -396t-396 -164t-396 164t-164 396t164 396t396 164t396 -164zM560 840q-99 0 -169.5 -82t-70.5 -198t70.5 -198t169.5 -82t169.5 82t70.5 198t-70.5 198t-169.5 82zM160 1280v240l400 160l400 -160v-240l-400 160z" />
    <glyph glyph-name="otilde" unicode="&#xf5;" horiz-adv-x="1220" 
d="M956 956q164 -164 164 -396t-164 -396t-396 -164t-396 164t-164 396t164 396t396 164t396 -164zM560 840q-99 0 -169.5 -82t-70.5 -198t70.5 -198t169.5 -82t169.5 82t70.5 198t-70.5 198t-169.5 82zM160 1280v240q120 120 240 122q120 -2 160 -42t160 -42q120 2 240 122
v-240q-120 -119 -240 -126q-120 7 -160 46q-40 40 -160 40t-240 -120z" />
    <glyph glyph-name="odieresis" unicode="&#xf6;" horiz-adv-x="1220" 
d="M956 956q164 -164 164 -396t-164 -396t-396 -164t-396 164t-164 396t164 396t396 164t396 -164zM560 840q-99 0 -169.5 -82t-70.5 -198t70.5 -198t169.5 -82t169.5 82t70.5 198t-70.5 198t-169.5 82zM160 1560h320v-280h-320v280zM640 1560h320v-280h-320v280z" />
    <glyph glyph-name="divide" unicode="&#xf7;" horiz-adv-x="1300" 
d="M0 850h1200v-300h-1200v300zM400 450h400v-350h-400v350zM400 1300h400v-350h-400v350z" />
    <glyph glyph-name="oslash" unicode="&#xf8;" horiz-adv-x="1220" 
d="M330 478l220 362q-93 -4 -160 -82q-70 -82 -70 -198q0 -44 10 -82zM450 10l-6 -10h-404l109 179q-149 160 -149 381q0 232 164 396t396 164q78 0 149 -18l11 18h358l-104 -183q146 -159 146 -377q0 -232 -164 -396t-396 -164q-58 0 -110 10zM795 620l-190 -335
q71 14 125 77q70 82 70 198q0 31 -5 60z" />
    <glyph glyph-name="ugrave" unicode="&#xf9;" horiz-adv-x="1220" 
d="M0 560v560h320v-560q0 -116 70.5 -198t169.5 -82t169.5 82t70.5 198v560h320v-560q0 -232 -164 -396t-396 -164t-396 164t-164 396zM880 1280h-198l-442 400h400z" />
    <glyph glyph-name="uacute" unicode="&#xfa;" horiz-adv-x="1220" 
d="M0 560v560h320v-560q0 -116 70.5 -198t169.5 -82t169.5 82t70.5 198v560h320v-560q0 -232 -164 -396t-396 -164t-396 164t-164 396zM480 1680h400l-442 -400h-198z" />
    <glyph glyph-name="ucircumflex" unicode="&#xfb;" horiz-adv-x="1220" 
d="M0 560v560h320v-560q0 -116 70.5 -198t169.5 -82t169.5 82t70.5 198v560h320v-560q0 -232 -164 -396t-396 -164t-396 164t-164 396zM160 1280v240l400 160l400 -160v-240l-400 160z" />
    <glyph glyph-name="udieresis" unicode="&#xfc;" horiz-adv-x="1220" 
d="M0 560v560h320v-560q0 -116 70.5 -198t169.5 -82t169.5 82t70.5 198v560h320v-560q0 -232 -164 -396t-396 -164t-396 164t-164 396zM160 1560h320v-280h-320v280zM640 1560h320v-280h-320v280z" />
    <glyph glyph-name="yacute" unicode="&#xfd;" horiz-adv-x="1200" 
d="M390 534l-20 26l-420 560h360l240 -320l240 320h360l-420 -560l-20 -26v-534h-320v534zM470 1680h400l-442 -400h-198z" />
    <glyph glyph-name="thorn" unicode="&#xfe;" horiz-adv-x="1220" 
d="M765 475q35 35 35 85t-35 85t-85 35h-360v-240h360q50 0 85 35zM720 160h-400v-159l-320 -1v1120h320v-161l399 1h1q166 0 283 -117t117 -283t-117 -283t-283 -117z" />
    <glyph glyph-name="ydieresis" unicode="&#xff;" horiz-adv-x="1200" 
d="M390 534l-20 26l-420 560h360l240 -320l240 320h360l-420 -560l-20 -26v-534h-320v534zM150 1560h320v-280h-320v280zM630 1560h320v-280h-320v280z" />
    <glyph glyph-name="dotlessi" unicode="&#x131;" horiz-adv-x="500" 
d="M0 1400h400v-1400h-400v1400z" />
    <glyph glyph-name="circumflex" unicode="&#x2c6;" horiz-adv-x="1100" 
d="M0 1600v300l500 200l500 -200v-300l-500 200z" />
    <glyph glyph-name="caron" unicode="&#x2c7;" horiz-adv-x="1100" 
d="M1000 2100v-300l-500 -200l-500 200v300l500 -200z" />
    <glyph glyph-name="uni02C9" unicode="&#x2c9;" horiz-adv-x="1024" 
d="M254 1195v125h516v-125h-516z" />
    <glyph glyph-name="breve" unicode="&#x2d8;" horiz-adv-x="1024" 
d="M219 1349h51q17 -73 75 -107t167 -34t166 33.5t74 107.5h51q-20 -133 -94 -201.5t-197 -68.5q-122 0 -197 69t-96 201z" />
    <glyph glyph-name="dotaccent" unicode="&#x2d9;" horiz-adv-x="500" 
d="M0 1950h400v-350h-400v350z" />
    <glyph glyph-name="ring" unicode="&#x2da;" horiz-adv-x="700" 
d="M300 1600q-124 0 -212 88t-88 212t88 212t212 88t212 -88t88 -212t-88 -212t-212 -88zM370.5 1829.5q29.5 29.5 29.5 70.5t-29.5 70.5t-70.5 29.5t-70.5 -29.5t-29.5 -70.5t29.5 -70.5t70.5 -29.5t70.5 29.5z" />
    <glyph glyph-name="ogonek" unicode="&#x2db;" horiz-adv-x="851" 
d="M400 100v-100q0 -41 29.5 -70.5t70.5 -29.5h250v-350h-325q-176 0 -300.5 124.5t-124.5 300.5v125h400z" />
    <glyph glyph-name="tilde" unicode="&#x2dc;" horiz-adv-x="1100" 
d="M0 1600v300q150 150 300 152q150 -2 200 -52t200 -52q150 2 300 152v-300q-150 -149 -300 -157q-150 8 -200 57q-50 50 -200 50t-300 -150z" />
    <glyph glyph-name="hungarumlaut" unicode="&#x2dd;" 
d="M300 2100h500l-552 -500h-248zM900 2100h500l-552 -500h-248z" />
    <glyph glyph-name="endash" unicode="&#x2013;" 
d="M0 900h1350v-300h-1350v300z" />
    <glyph glyph-name="emdash" unicode="&#x2014;" horiz-adv-x="1650" 
d="M0 900h1500v-300h-1500v300z" />
    <glyph glyph-name="quoteleft" unicode="&#x2018;" horiz-adv-x="500" 
d="M400 750h-400v350q0 200 100 300h100v-100q0 -200 200 -200v-350z" />
    <glyph glyph-name="quoteright" unicode="&#x2019;" horiz-adv-x="500" 
d="M0 1400h400v-350q0 -200 -100 -300h-100v100q0 200 -200 200v350z" />
    <glyph glyph-name="quotesinglbase" unicode="&#x201a;" horiz-adv-x="500" 
d="M0 350h400v-350q0 -200 -100 -300h-100v100q0 200 -200 200v350z" />
    <glyph glyph-name="quotedblleft" unicode="&#x201c;" horiz-adv-x="1000" 
d="M900 750h-400v350q0 200 100 300h100v-100q0 -200 200 -200v-350zM400 750h-400v350q0 200 100 300h100v-100q0 -200 200 -200v-350z" />
    <glyph glyph-name="quotedblright" unicode="&#x201d;" horiz-adv-x="1000" 
d="M0 1400h400v-350q0 -200 -100 -300h-100v100q0 200 -200 200v350zM500 1400h400v-350q0 -200 -100 -300h-100v100q0 200 -200 200v350z" />
    <glyph glyph-name="quotedblbase" unicode="&#x201e;" horiz-adv-x="1000" 
d="M0 350h400v-350q0 -200 -100 -300h-100v100q0 200 -200 200v350zM500 350h400v-350q0 -200 -100 -300h-100v100q0 200 -200 200v350z" />
    <glyph glyph-name="dagger" unicode="&#x2020;" horiz-adv-x="1014" 
d="M486 1022q-8 97 -54 178q-57 101 -57 129q0 49 36 78.5t96 29.5q57 0 94.5 -27.5t37.5 -71.5q0 -32 -55 -137q-46 -85 -55 -179q96 8 177 54q101 57 129 57q49 0 79 -36t30 -96q0 -57 -27.5 -94.5t-72.5 -37.5q-32 0 -136 55q-85 46 -179 57q8 -176 110 -277
q-106 -460 -112 -974h-38q-6 514 -114 974q102 101 111 277q-96 -10 -178 -55q-101 -57 -129 -57q-49 0 -78.5 36t-29.5 96q0 57 27.5 94.5t71.5 37.5q32 0 137 -56q85 -46 179 -55z" />
    <glyph glyph-name="daggerdbl" unicode="&#x2021;" horiz-adv-x="1014" 
d="M528 186q94 11 179 57q104 55 136 55q45 0 72.5 -37.5t27.5 -94.5q0 -60 -30 -96t-79 -36q-28 0 -129 57q-81 46 -177 54q9 -94 55 -179q55 -105 55 -137q0 -44 -37.5 -71.5t-94.5 -27.5q-60 0 -96 29.5t-36 78.5q0 28 57 129q46 81 54 178q-94 -9 -179 -55
q-105 -56 -137 -56q-44 0 -71.5 37.5t-27.5 94.5q0 60 29.5 96t78.5 36q28 0 129 -57q82 -45 178 -55q-9 226 -111 398q102 171 111 397q-96 -10 -178 -55q-101 -57 -129 -57q-49 0 -78.5 36t-29.5 96q0 57 27.5 94.5t71.5 37.5q32 0 137 -56q85 -46 179 -55q-8 97 -54 178
q-57 101 -57 129q0 49 36 78.5t96 29.5q57 0 94.5 -27.5t37.5 -71.5q0 -32 -55 -137q-46 -85 -55 -179q96 8 177 54q101 57 129 57q49 0 79 -36t30 -96q0 -57 -27.5 -94.5t-72.5 -37.5q-32 0 -136 55q-85 46 -179 57q8 -226 110 -397q-102 -172 -110 -398z" />
    <glyph glyph-name="bullet" unicode="&#x2022;" horiz-adv-x="1024" 
d="M216 718q0 123 87 209t210 86q122 0 208.5 -86.5t86.5 -208.5t-87.5 -209.5t-209.5 -87.5q-123 0 -209 87t-86 210z" />
    <glyph glyph-name="ellipsis" unicode="&#x2026;" 
d="M0 350h400v-350h-400v350zM500 350h400v-350h-400v350zM1000 350h400v-350h-400v350z" />
    <glyph glyph-name="guilsinglleft" unicode="&#x2039;" horiz-adv-x="1050" 
d="M500 1200h450l-500 -500l500 -500h-450l-500 500z" />
    <glyph glyph-name="guilsinglright" unicode="&#x203a;" horiz-adv-x="1050" 
d="M950 700l-500 -500h-450l500 500l-500 500h450z" />
    <glyph glyph-name="fraction" unicode="&#x2044;" horiz-adv-x="952" 
d="M-50 0l550 1400h400l-500 -1400h-450z" />
    <glyph glyph-name="fraction" unicode="&#x2215;" horiz-adv-x="952" 
d="M-50 0l550 1400h400l-500 -1400h-450z" />
    <glyph glyph-name="franc" unicode="&#x20a3;" 
d="M100 300v1099l800 1q100 0 100 100q200 0 400 -200l-250 -250h-650v-200h500v-50l-250 -250h-250v-250h100v-300h-100v-100l-400 -1v101h-100v300h100z" />
    <glyph glyph-name="lira" unicode="&#x20a4;" 
d="M600 450v-100h800v-350h-1400v350h200v100h-200v200h200v100h-200v200h200v25q0 176 124.5 300.5t300.5 124.5h75q100 0 100 100q200 0 400 -200l-250 -250h-250q-41 0 -70.5 -29.5t-29.5 -70.5h600v-200h-600v-100h600v-200h-600z" />
    <glyph glyph-name="peseta" unicode="&#x20a7;" 
d="M956 794q44 44 44 106t-44 106t-106 44l-350 1v-300l350 -1q62 0 106 44zM100 300v1100h800q207 0 353.5 -146.5t146.5 -353.5t-146.5 -353.5t-353.5 -146.5l-400 1v-101h100v-300h-100v-99l-400 -1v100h-100v300h100z" />
    <glyph glyph-name="Euro" unicode="&#x20ac;" 
d="M144 950q51 135 161 245q205 205 495 205h100q100 0 100 100q200 0 400 -200l-250 -250h-350q-122 0 -210 -100h610v-200h-697q-3 -24 -3 -50t3 -50h697v-200h-610q88 -100 210 -100h600v-350h-600q-290 0 -495 205q-110 110 -161 245h-144v200h102q-2 25 -2 50t2 50
h-102v200h144z" />
    <glyph glyph-name="uni2116" unicode="&#x2116;" horiz-adv-x="1550" 
d="M500 979v421h200v-700h-277l-223 418v-418h-200v700h274zM1347.5 1297.5q102.5 -102.5 102.5 -247.5t-102.5 -247.5t-247.5 -102.5t-247.5 102.5t-102.5 247.5t102.5 247.5t247.5 102.5t247.5 -102.5zM1100 1225q-62 0 -106 -51t-44 -124q0 -72 44 -123.5t106 -51.5
t106 51.5t44 123.5q0 73 -44 124t-106 51z" />
    <glyph glyph-name="trademark" unicode="&#x2122;" horiz-adv-x="1750" 
d="M400 1225v-525h-200v525h-200v175h450q50 0 50 50q100 0 200 -100l-125 -125h-175zM1201 700l-251 351v-351h-200v698l201 2l249 -350l251 350l199 -2v-698h-200v350z" />
    <glyph glyph-name="partialdiff" unicode="&#x2202;" horiz-adv-x="1650" 
d="M0 200v1100q0 200 200 200h1100q200 0 200 -200v-1100q0 -200 -200 -200h-1100q-200 0 -200 200zM1475 201v1099q0 175 -175 175h-1100q-174 0 -175 -175v-1100q1 -175 175 -175h1101q174 0 174 176z" />
    <glyph glyph-name="Delta" unicode="&#x2206;" horiz-adv-x="1650" 
d="M0 200v1100q0 200 200 200h1100q200 0 200 -200v-1100q0 -200 -200 -200h-1100q-200 0 -200 200zM1475 201v1099q0 175 -175 175h-1100q-174 0 -175 -175v-1100q1 -175 175 -175h1101q174 0 174 176z" />
    <glyph glyph-name="product" unicode="&#x220f;" horiz-adv-x="1650" 
d="M0 200v1100q0 200 200 200h1100q200 0 200 -200v-1100q0 -200 -200 -200h-1100q-200 0 -200 200zM1475 201v1099q0 175 -175 175h-1100q-174 0 -175 -175v-1100q1 -175 175 -175h1101q174 0 174 176z" />
    <glyph glyph-name="summation" unicode="&#x2211;" horiz-adv-x="1650" 
d="M0 200v1100q0 200 200 200h1100q200 0 200 -200v-1100q0 -200 -200 -200h-1100q-200 0 -200 200zM1475 201v1099q0 175 -175 175h-1100q-174 0 -175 -175v-1100q1 -175 175 -175h1101q174 0 174 176z" />
    <glyph glyph-name="minus" unicode="&#x2212;" horiz-adv-x="1300" 
d="M0 850h1200v-300h-1200v300z" />
    <glyph glyph-name="approxequal" unicode="&#x2248;" horiz-adv-x="1650" 
d="M0 200v1100q0 200 200 200h1100q200 0 200 -200v-1100q0 -200 -200 -200h-1100q-200 0 -200 200zM1475 201v1099q0 175 -175 175h-1100q-174 0 -175 -175v-1100q1 -175 175 -175h1101q174 0 174 176z" />
    <glyph glyph-name="lessequal" unicode="&#x2264;" horiz-adv-x="1650" 
d="M0 200v1100q0 200 200 200h1100q200 0 200 -200v-1100q0 -200 -200 -200h-1100q-200 0 -200 200zM1475 201v1099q0 175 -175 175h-1100q-174 0 -175 -175v-1100q1 -175 175 -175h1101q174 0 174 176z" />
    <glyph glyph-name="greaterequal" unicode="&#x2265;" horiz-adv-x="1650" 
d="M0 200v1100q0 200 200 200h1100q200 0 200 -200v-1100q0 -200 -200 -200h-1100q-200 0 -200 200zM1475 201v1099q0 175 -175 175h-1100q-174 0 -175 -175v-1100q1 -175 175 -175h1101q174 0 174 176z" />
    <glyph glyph-name="uniF001" unicode="&#xf001;" horiz-adv-x="1073" 
 />
    <glyph glyph-name="uniF001" unicode="&#xfb01;" horiz-adv-x="1073" 
 />
    <glyph glyph-name="uniF002" unicode="&#xf002;" horiz-adv-x="1081" 
 />
    <glyph glyph-name="uniF002" unicode="&#xfb02;" horiz-adv-x="1081" 
 />
    <glyph glyph-name="OE" unicode="&#x152;" horiz-adv-x="2500" 
d="M700 1050q-124 0 -212 -102.5t-88 -247.5t88 -247.5t212 -102.5t212 102.5t88 247.5t-88 247.5t-212 102.5zM1000 65q-136 -65 -300 -65q-290 0 -495 205t-205 495t205 495t495 205q164 0 300 -65v64h1400v-349h-1000v-200h600v-300h-600v-200h1000v-350h-1400v65z" />
    <glyph glyph-name="oe" unicode="&#x153;" horiz-adv-x="2500" 
d="M700 1050q-124 0 -212 -102.5t-88 -247.5t88 -247.5t212 -102.5t212 102.5t88 247.5t-88 247.5t-212 102.5zM1000 65q-136 -65 -300 -65q-290 0 -495 205t-205 495t205 495t495 205q164 0 300 -65v64h1400v-349h-1000v-200h600v-300h-600v-200h1000v-350h-1400v65z" />
    <glyph glyph-name="perthousand" unicode="&#x2030;" horiz-adv-x="2200" 
d="M570.5 879.5q29.5 29.5 29.5 70.5t-29.5 70.5t-70.5 29.5t-70.5 -29.5t-29.5 -70.5t29.5 -70.5t70.5 -29.5t70.5 29.5zM1070.5 379.5q29.5 29.5 29.5 70.5t-29.5 70.5t-70.5 29.5t-70.5 -29.5t-29.5 -70.5t29.5 -70.5t70.5 -29.5t70.5 29.5zM1670.5 379.5
q29.5 29.5 29.5 70.5t-29.5 70.5t-70.5 29.5t-70.5 -29.5t-29.5 -70.5t29.5 -70.5t70.5 -29.5t70.5 29.5zM1021 900q158 -6 279 -90q129 90 300 90q207 0 353.5 -132t146.5 -318t-146.5 -318t-353.5 -132q-171 0 -300 90q-129 -90 -300 -90q-154 0 -274 73l-26 -73h-450
l197 502q-173 15 -300 130q-147 132 -147 318t146.5 318t353.5 132q152 0 272 -71l28 71h400z" />
    </font>
</defs>
</svg>
